HIERARCHY
ROOT Hips
{
	OFFSET 0.00000 0.00000 0.00000
	CHANNELS 6 Xposition Yposition Zposition Zrotation Yrotation Xrotation 
	JOINT LHipJoint
	{
		OFFSET 0 0 0
		CHANNELS 3 Zrotation Yrotation Xrotation
		JOINT LeftUpLeg
		{
			OFFSET 1.81638 -1.86202 0.89635
			CHANNELS 3 Zrotation Yrotation Xrotation
			JOINT LeftLeg
			{
				OFFSET 2.63464 -7.23861 0.00000
				CHANNELS 3 Zrotation Yrotation Xrotation
				JOINT LeftFoot
				{
					OFFSET 2.45871 -6.75336 0.00000
					CHANNELS 3 Zrotation Yrotation Xrotation
					JOINT LeftToeBase
					{
						OFFSET 0.34235 -0.94059 2.20020
						CHANNELS 3 Zrotation Yrotation Xrotation
						End Site
						{
							OFFSET 0.00000 -0.00000 1.18611
						}
					}
				}
			}
		}
	}
	JOINT RHipJoint
	{
		OFFSET 0 0 0
		CHANNELS 3 Zrotation Yrotation Xrotation
		JOINT RightUpLeg
		{
			OFFSET -1.84405 -1.86203 0.89635
			CHANNELS 3 Zrotation Yrotation Xrotation
			JOINT RightLeg
			{
				OFFSET -2.71067 -7.44751 0.00000
				CHANNELS 3 Zrotation Yrotation Xrotation
				JOINT RightFoot
				{
					OFFSET -2.47159 -6.79060 0.00000
					CHANNELS 3 Zrotation Yrotation Xrotation
					JOINT RightToeBase
					{
						OFFSET -0.26223 -0.72048 2.36007
						CHANNELS 3 Zrotation Yrotation Xrotation
						End Site
						{
							OFFSET -0.00000 -0.00000 1.23343
						}
					}
				}
			}
		}
	}
	JOINT LowerBack
	{
		OFFSET 0 0 0
		CHANNELS 3 Zrotation Yrotation Xrotation
		JOINT Spine
		{
			OFFSET 0.02089 1.99248 -0.22512
			CHANNELS 3 Zrotation Yrotation Xrotation
			JOINT Spine1
			{
				OFFSET 0.01476 2.01356 -0.03079
				CHANNELS 3 Zrotation Yrotation Xrotation
				JOINT Neck
				{
					OFFSET 0 0 0
					CHANNELS 3 Zrotation Yrotation Xrotation
					JOINT Neck1
					{
						OFFSET 0.04846 1.65098 0.06663
						CHANNELS 3 Zrotation Yrotation Xrotation
						JOINT Head
						{
							OFFSET -0.06061 1.60634 -0.07565
							CHANNELS 3 Zrotation Yrotation Xrotation
							End Site
							{
								OFFSET -0.02954 1.73562 -0.03642
							}
						}
					}
				}
				JOINT LeftShoulder
				{
					OFFSET 0 0 0
					CHANNELS 3 Zrotation Yrotation Xrotation
					JOINT LeftArm
					{
						OFFSET 3.45234 1.47051 -0.06993
						CHANNELS 3 Zrotation Yrotation Xrotation
						JOINT LeftForeArm
						{
							OFFSET 5.49313 -0.00000 0.00000
							CHANNELS 3 Zrotation Yrotation Xrotation
							JOINT LeftHand
							{
								OFFSET 3.29037 -0.00000 0.00000
								CHANNELS 3 Zrotation Yrotation Xrotation
								JOINT LeftFingerBase
								{
									OFFSET 0 0 0
									CHANNELS 3 Zrotation Yrotation Xrotation
									JOINT LeftHandIndex1
									{
										OFFSET 0.72966 -0.00000 0.00000
										CHANNELS 3 Zrotation Yrotation Xrotation
										End Site
										{
											OFFSET 0.58827 -0.00000 0.00000
										}
									}
								}
								JOINT LThumb
								{
									OFFSET 0 0 0
									CHANNELS 3 Zrotation Yrotation Xrotation
									End Site
									{
										OFFSET 0.59725 -0.00000 0.59725
									}
								}
							}
						}
					}
				}
				JOINT RightShoulder
				{
					OFFSET 0 0 0
					CHANNELS 3 Zrotation Yrotation Xrotation
					JOINT RightArm
					{
						OFFSET -3.41935 1.44327 0.20453
						CHANNELS 3 Zrotation Yrotation Xrotation
						JOINT RightForeArm
						{
							OFFSET -5.23684 -0.00000 0.00000
							CHANNELS 3 Zrotation Yrotation Xrotation
							JOINT RightHand
							{
								OFFSET -3.38251 -0.00000 0.00000
								CHANNELS 3 Zrotation Yrotation Xrotation
								JOINT RightFingerBase
								{
									OFFSET 0 0 0
									CHANNELS 3 Zrotation Yrotation Xrotation
									JOINT RightHandIndex1
									{
										OFFSET -0.69145 -0.00000 0.00000
										CHANNELS 3 Zrotation Yrotation Xrotation
										End Site
										{
											OFFSET -0.55747 -0.00000 0.00000
										}
									}
								}
								JOINT RThumb
								{
									OFFSET 0 0 0
									CHANNELS 3 Zrotation Yrotation Xrotation
									End Site
									{
										OFFSET -0.56598 -0.00000 0.56598
									}
								}
							}
						}
					}
				}
			}
		}
	}
}
MOTION
Frames: 8
Frame Time: .0083333
-37.0228 17.6198 -2.4082 0 0 0 0 0 0 -21 0 0 0 0 0 0 0 0 0 0 0 0 0 0 21 0 0 0 0 0 0 0 0 0 0 0 0 0 0 0 0 0 0 0 0 0 0 -16 0 0 21 0 0 11 0 0 0 -8 0 0 0 0 0 0 0 0 0 0 0 0 0 0 0 0 0 0 0 0 8 0 0 0 0 0 0 0 0 0 0 0 0 0 0 0 0 0
-37.0228 17.6198 -2.4082 -26.0043 81.4343 -23.0150 0.0000 0.0000 0.0000 -9.0829 -13.6016 -18.7642 2.7934 10.3529 30.1273 0.0188 -12.8867 -9.2835 0.8028 5.7184 15.9695 0.0000 0.0000 0.0000 27.6545 7.2292 3.1889 -0.8977 -6.0386 16.8964 -1.8636 2.4447 -25.1677 -0.7713 -5.6078 15.6507 -0.7682 -1.6260 17.6522 2.2103 -1.8088 6.4478 3.1187 -0.7794 -2.8825 0.9652 3.9502 -4.1718 -4.6956 5.1856 -12.1178 -1.7597 2.8179 -3.0084 0.0000 -0.0000 0.0000 -83.2189 24.6755 39.7429 31.4351 -42.0922 -12.3605 -0.0000 0.0000 -6.0487 1.0193 11.4925 0.2031 -7.1250 0.0000 -0.0000 -22.7531 40.3554 2.7711 0.0000 -0.0000 0.0000 63.7892 -16.8020 65.4317 -29.6333 40.5770 -11.1703 0.0000 -0.0000 -8.8678 -7.2971 -17.8532 2.2481 7.1250 -0.0000 -0.0000 19.6388 -46.9718 -0.9927
-37.0282 17.5939 -2.4053 -26.3601 81.4923 -23.3675 0.0000 0.0000 0.0000 -9.0410 -13.6120 -18.4779 2.7938 10.3535 30.1293 0.0282 -13.0173 -9.4917 0.7479 5.5240 15.4093 0.0000 0.0000 0.0000 27.7110 7.3044 2.9905 -0.9434 -6.1861 17.3255 -1.8934 2.4364 -25.3770 -0.7589 -5.5637 15.5236 -0.6966 -1.6425 17.6805 2.1994 -1.8189 6.4297 3.0697 -0.7830 -2.9190 1.0273 3.9360 -4.2010 -4.7056 5.1646 -12.0276 -1.7697 2.8028 -2.9710 -0.0000 0.0000 0.0000 -83.1107 24.6921 39.8206 31.4961 -42.1417 -12.4014 -0.0000 0.0000 -6.1097 1.0051 11.5154 0.2007 -7.1250 0.0000 -0.0000 -22.7724 40.3751 2.7619 -0.0000 0.0000 0.0000 63.8296 -16.8051 65.3502 -29.5892 40.5387 -11.1416 0.0000 -0.0000 -9.0265 -7.1600 -17.5403 2.1681 7.1250 -0.0000 -0.0000 19.6379 -46.6587 -0.8353
-37.0261 17.6170 -2.3987 -26.3313 81.5263 -23.3709 0.0000 0.0000 0.0000 -9.0524 -13.6559 -18.7730 2.7989 10.3622 30.1579 0.0080 -12.9340 -9.1793 0.6738 5.2490 14.6201 0.0000 0.0000 0.0000 27.7107 7.2585 3.0808 -0.9308 -6.1457 17.2079 -1.8776 2.3949 -25.2768 -0.7485 -5.5262 15.4156 -0.6850 -1.6298 17.6596 2.1936 -1.7998 6.4503 3.0521 -0.7735 -2.8879 1.0401 3.9075 -4.2433 -4.7128 5.1254 -11.9238 -1.7695 2.7803 -2.9286 0.0000 -0.0000 0.0000 -83.0112 24.7050 39.9399 31.5934 -42.2206 -12.4668 -0.0000 0.0000 -6.2150 0.9127 11.7165 0.1854 -7.1250 0.0000 -0.0000 -22.9161 40.5522 2.6746 0.0000 -0.0000 0.0000 63.8589 -16.8018 65.2710 -29.5505 40.5050 -11.1165 0.0000 -0.0000 -9.0609 -7.2376 -17.4202 2.1773 7.1250 -0.0000 -0.0000 19.5210 -46.5552 -0.7783
-37.0266 17.6165 -2.3931 -26.4352 81.5424 -23.4941 0.0000 0.0000 0.0000 -9.0288 -13.6810 -18.7524 2.8012 10.3660 30.1702 0.0113 -12.9522 -9.2332 0.6488 5.1527 14.3447 0.0000 0.0000 0.0000 27.7260 7.1801 3.0462 -0.9362 -6.1633 17.2590 -1.8777 2.4490 -25.2651 -0.7345 -5.4752 15.2691 -0.6685 -1.6338 17.6870 2.1951 -1.8018 6.4453 3.0458 -0.7739 -2.9080 1.0364 3.8875 -4.2970 -4.6982 5.0998 -11.8278 -1.7592 2.7648 -2.8873 -0.0000 -0.0000 0.0000 -82.8867 24.7138 40.1473 31.6388 -42.2573 -12.4972 -0.0000 0.0000 -6.5000 0.9041 11.8269 0.1853 -7.1250 0.0000 -0.0000 -22.9604 40.6530 2.6194 -0.0000 -0.0000 0.0000 63.8470 -16.7678 65.2813 -29.5246 40.4824 -11.0997 0.0000 -0.0000 -9.0896 -7.2307 -17.5020 2.1851 7.1250 -0.0000 -0.0000 19.5592 -46.6315 -0.8182
-37.0268 17.6132 -2.3883 -26.2252 81.5434 -23.3081 0.0000 0.0000 0.0000 -9.0489 -13.6551 -18.7051 2.8048 10.3721 30.1902 0.0158 -13.0017 -9.3254 0.6399 5.1176 14.2444 0.0000 0.0000 0.0000 27.7198 7.1742 3.1664 -0.9176 -6.1035 17.0849 -1.8422 2.3262 -25.0451 -0.6979 -5.3402 14.8815 -0.6926 -1.6142 17.6876 2.1775 -1.7820 6.4298 3.0373 -0.7644 -2.9257 1.0639 3.8845 -4.2394 -4.6817 5.0955 -11.8217 -1.7601 2.7608 -2.8955 0.0000 -0.0000 0.0000 -82.7882 24.8177 40.2171 31.7213 -42.3238 -12.5527 -0.0000 0.0000 -6.6331 0.8422 11.8104 0.1724 -7.1250 0.0000 -0.0000 -23.0063 40.6322 2.6379 0.0000 -0.0000 0.0000 63.8665 -16.8113 65.2509 -29.5457 40.5008 -11.1134 0.0000 -0.0000 -9.0581 -7.2166 -17.5450 2.1860 7.1250 -0.0000 -0.0000 19.5889 -46.6704 -0.8390
-37.0270 17.6131 -2.3833 -26.1688 81.5523 -23.2744 0.0000 0.0000 0.0000 -9.0502 -13.6513 -18.6903 2.8049 10.3724 30.1913 0.0164 -13.0211 -9.3465 0.6138 5.0141 13.9487 0.0000 0.0000 0.0000 27.7281 7.1676 3.1758 -0.9214 -6.1156 17.1203 -1.8351 2.3001 -25.0015 -0.6808 -5.2757 14.6967 -0.6898 -1.6037 17.6943 2.1668 -1.7686 6.4223 3.0221 -0.7575 -2.9385 1.0870 3.8708 -4.2358 -4.6752 5.0767 -11.7732 -1.7605 2.7490 -2.8797 -0.0000 0.0000 0.0000 -82.6771 24.8847 40.3367 31.7991 -42.3864 -12.6052 -0.0000 0.0000 -6.7759 0.7932 11.8696 0.1632 -7.1250 0.0000 -0.0000 -23.0668 40.6822 2.6154 -0.0000 0.0000 0.0000 63.8835 -16.8258 65.2167 -29.5345 40.4911 -11.1061 0.0000 -0.0000 -9.0743 -7.2191 -17.4982 2.1811 7.1250 -0.0000 -0.0000 19.5681 -46.6264 -0.8160
-37.0267 17.6136 -2.3783 -26.0858 81.5529 -23.2147 0.0000 0.0000 0.0000 -9.0521 -13.6408 -18.6779 2.8046 10.3718 30.1892 0.0174 -13.0379 -9.3699 0.5921 4.9263 13.6984 0.0000 0.0000 0.0000 27.7368 7.1694 3.1876 -0.9256 -6.1291 17.1595 -1.8292 2.2779 -24.9646 -0.6658 -5.2183 14.5321 -0.6896 -1.5899 17.6970 2.1560 -1.7515 6.4146 3.0074 -0.7490 -2.9494 1.1126 3.8569 -4.2265 -4.6715 5.0572 -11.7342 -1.7626 2.7372 -2.8682 -0.0000 -0.0000 0.0000 -82.5647 24.9607 40.4577 31.8733 -42.4459 -12.6552 -0.0000 0.0000 -6.9032 0.7430 11.9152 0.1534 -7.1250 0.0000 -0.0000 -23.1239 40.7196 2.5999 -0.0000 -0.0000 0.0000 63.9004 -16.8464 65.1824 -29.5286 40.4859 -11.1023 0.0000 -0.0000 -9.0836 -7.2357 -17.4563 2.1811 7.1250 -0.0000 -0.0000 19.5369 -46.5890 -0.7959
